<svg version="1.1" id="Layer_1" xmlns="http://www.w3.org/2000/svg" xmlns:xlink="http://www.w3.org/1999/xlink" x="0px" y="0px"
	 width="100%" viewBox="0 0 225 225" enable-background="new 0 0 225 225" xml:space="preserve">
<path fill="#FEFEFE" opacity="1.000000" stroke="none" 
	d="
M1.000000,83.000000 
	C1.000000,55.333340 1.000000,28.166676 1.000000,1.000011 
	C75.999977,1.000007 150.999954,1.000007 225.999969,1.000004 
	C226.000000,38.499973 226.000000,75.999947 226.000000,113.499924 
	C226.000000,150.999924 226.000000,188.499908 226.000000,225.999939 
	C151.000046,225.999954 76.000092,225.999954 1.000068,225.999969 
	C1.000000,178.500000 1.000000,131.000000 1.000000,83.000000 
M37.911762,224.051376 
	C87.453957,224.060196 136.996155,224.071167 186.538345,224.064606 
	C187.686691,224.064453 188.835007,223.866608 190.563004,223.653610 
	C190.688919,223.106598 190.814819,222.559570 191.110184,221.086975 
	C191.000824,211.723724 190.891464,202.360489 190.849960,192.223755 
	C189.000732,187.483154 187.119370,182.754623 185.329773,177.991623 
	C184.978333,177.056259 184.981720,175.987564 185.559540,175.011108 
	C192.707642,170.570282 193.580170,162.064743 186.589417,158.218979 
	C175.174744,151.939468 172.252838,141.897232 172.195648,130.150070 
	C172.130753,116.822762 172.081390,103.493919 172.211670,90.167564 
	C172.318420,79.247765 170.227341,69.053902 163.273193,60.308636 
	C167.390320,51.618031 171.300400,42.992477 175.569351,34.548351 
	C177.135300,31.450834 177.075058,29.491957 173.981995,27.579491 
	C167.924789,23.834305 162.013016,19.854399 156.029419,15.989626 
	C143.768753,8.070517 130.259247,3.777624 115.767731,3.004254 
	C90.550255,1.658470 69.996567,12.414701 51.818310,28.700649 
	C50.851440,29.566868 50.616829,32.338707 51.222786,33.695961 
	C55.216011,42.640194 59.533390,51.439705 63.764606,60.327400 
	C56.971943,68.863564 54.741425,78.713249 54.800751,89.311569 
	C54.877216,102.971962 54.888672,116.633568 54.798248,130.293793 
	C54.720486,142.041367 51.873928,152.344681 40.244461,158.225586 
	C36.652287,160.042114 35.379749,163.617050 35.934013,167.595001 
	C36.447327,171.279037 38.038719,174.222549 42.637608,175.647064 
	C40.519672,180.914780 38.306873,186.148499 36.391747,191.488937 
	C36.121670,192.242035 37.304935,193.516342 37.520870,194.809662 
	C37.421024,195.115540 37.517242,195.335281 36.906029,195.342880 
	C36.628376,196.381348 36.350727,197.419830 35.899712,199.335052 
	C35.952915,206.893631 36.006119,214.452209 35.954117,222.591660 
	C36.308411,222.981476 36.662704,223.371292 37.911762,224.051376 
z"/>
<path fill="#5CCEC4" opacity="1.000000" stroke="none" 
	d="
M37.809532,195.468857 
	C37.517242,195.335281 37.421024,195.115540 38.096123,194.634338 
	C39.064056,193.554382 39.599930,192.684311 39.828125,191.739929 
	C43.786739,175.356812 55.370491,165.795273 72.158394,165.388260 
	C73.598267,165.353363 75.711815,166.490280 76.438057,167.718262 
	C84.457184,181.277405 96.935127,189.210526 110.874527,195.260742 
	C112.455757,195.947067 114.872520,195.865433 116.475067,195.164352 
	C130.578766,188.994339 143.009659,180.676315 151.462952,167.007126 
	C168.570404,167.976120 181.463043,178.954041 183.911301,195.446228 
	C185.139725,203.721222 184.643372,212.252258 184.468872,220.739929 
	C135.818329,220.812332 87.625969,220.812332 38.972290,220.812332 
	C38.972290,213.258652 38.972290,206.127991 39.028481,198.572693 
	C38.659626,197.254974 38.234577,196.361908 37.809532,195.468857 
z"/>
<path fill="#2F3B5E" opacity="1.000000" stroke="none" 
	d="
M42.141327,174.963623 
	C38.038719,174.222549 36.447327,171.279037 35.934013,167.595001 
	C35.379749,163.617050 36.652287,160.042114 40.244461,158.225586 
	C51.873928,152.344681 54.720486,142.041367 54.798248,130.293793 
	C54.888672,116.633568 54.877216,102.971962 54.800751,89.311569 
	C54.741425,78.713249 56.971943,68.863564 63.764606,60.327400 
	C59.533390,51.439705 55.216011,42.640194 51.222786,33.695961 
	C50.616829,32.338707 50.851440,29.566868 51.818310,28.700649 
	C69.996567,12.414701 90.550255,1.658470 115.767731,3.004254 
	C130.259247,3.777624 143.768753,8.070517 156.029419,15.989626 
	C162.013016,19.854399 167.924789,23.834305 173.981995,27.579491 
	C177.075058,29.491957 177.135300,31.450834 175.569351,34.548351 
	C171.300400,42.992477 167.390320,51.618031 163.273193,60.308636 
	C170.227341,69.053902 172.318420,79.247765 172.211670,90.167564 
	C172.081390,103.493919 172.130753,116.822762 172.195648,130.150070 
	C172.252838,141.897232 175.174744,151.939468 186.589417,158.218979 
	C193.580170,162.064743 192.707642,170.570282 184.956390,175.121475 
	C182.554245,174.031342 180.740570,173.263885 178.551025,174.889557 
	C172.353119,168.922379 165.001465,166.285583 157.002487,164.690216 
	C156.998718,163.550217 156.996094,162.790237 157.414078,162.018326 
	C165.924881,162.461487 172.752884,165.878296 179.267899,170.490524 
	C180.746552,171.537338 184.100845,171.415558 185.729446,170.420395 
	C188.133667,168.951279 188.679214,166.038315 186.664398,163.449371 
	C185.757690,162.284302 184.740219,161.022766 183.482330,160.342300 
	C172.665894,154.490982 169.149353,144.729660 169.029907,133.283691 
	C168.880417,118.960159 169.284195,104.625046 168.851074,90.313034 
	C168.668121,84.267822 167.333679,78.174149 165.841187,72.274918 
	C164.296204,66.168304 160.598373,62.075294 153.914612,60.326252 
	C136.493286,55.767349 119.016113,52.095158 100.951454,55.031971 
	C90.699532,56.698650 80.499672,58.882988 70.460403,61.531734 
	C67.695168,62.261311 64.341690,65.060257 63.426212,67.670174 
	C60.990067,74.615356 58.626125,81.916389 58.243080,89.181870 
	C57.463665,103.965660 58.153824,118.821121 57.957153,133.643311 
	C57.807888,144.892822 54.181801,154.368301 43.646637,160.286972 
	C37.876049,163.528885 37.861778,167.604507 43.004555,172.395294 
	C43.032635,173.483536 43.061535,174.208710 43.044876,174.974518 
	C42.999317,175.015121 42.920937,175.108688 42.723759,175.084656 
	C42.526581,175.060623 42.141327,174.963623 42.141327,174.963623 
M147.521729,14.929725 
	C111.654823,-2.835166 78.583633,8.027560 54.116600,31.777323 
	C57.639084,39.245907 61.364246,46.684612 64.649048,54.312943 
	C66.171379,57.848274 67.832039,58.392143 71.446815,57.176689 
	C86.063576,52.261848 101.121429,50.297344 116.581627,50.685638 
	C130.353592,51.031536 143.645157,53.612442 156.799133,57.430588 
	C158.070114,57.799511 160.644653,57.170879 161.119537,56.241585 
	C165.265167,48.129181 169.070068,39.842659 173.393951,30.726980 
	C164.861099,25.472769 156.536331,20.346691 147.521729,14.929725 
z"/>
<path fill="#27365A" opacity="1.000000" stroke="none" 
	d="
M156.993469,162.030243 
	C156.996094,162.790237 156.998718,163.550217 156.615875,164.732361 
	C154.501282,165.773819 152.772156,166.393112 151.043045,167.012390 
	C143.009659,180.676315 130.578766,188.994339 116.475067,195.164352 
	C114.872520,195.865433 112.455757,195.947067 110.874527,195.260742 
	C96.935127,189.210526 84.457184,181.277405 76.438057,167.718262 
	C75.711815,166.490280 73.598267,165.353363 72.158394,165.388260 
	C55.370491,165.795273 43.786739,175.356812 39.828125,191.739929 
	C39.599930,192.684311 39.064056,193.554382 38.243439,194.504211 
	C37.304935,193.516342 36.121670,192.242035 36.391747,191.488937 
	C38.306873,186.148499 40.519672,180.914780 42.389465,175.305344 
	C42.141327,174.963623 42.526581,175.060623 42.800549,175.219452 
	C43.181217,175.411835 43.287914,175.445419 43.394615,175.478989 
	C43.293221,175.297287 43.191830,175.115601 43.090431,174.933899 
	C43.061535,174.208710 43.032635,173.483536 43.389839,172.388062 
	C44.749207,171.869644 46.064838,172.077850 46.644875,171.520508 
	C56.930824,161.636917 70.195076,162.136749 83.230133,161.243362 
	C84.467400,161.853500 85.453110,162.169235 86.158966,162.717682 
	C83.799072,163.782349 81.719032,164.614304 79.368629,165.554382 
	C84.215500,174.283340 91.029114,180.622818 99.187981,185.280075 
	C115.853798,194.793320 111.231171,194.758682 127.936821,185.198257 
	C136.078873,180.538696 142.883621,174.209290 147.685303,165.341415 
	C138.025177,162.912247 131.019104,157.980194 128.846832,147.660538 
	C128.651489,146.265289 128.411819,145.245819 128.121750,144.012070 
	C117.662003,148.054916 107.765327,147.134338 97.854553,142.774597 
	C97.128357,142.017914 96.556580,141.508347 96.124207,140.691223 
	C96.558716,139.777969 96.853821,139.172256 97.504059,138.680389 
	C108.041458,144.343658 118.437256,144.342209 129.004028,140.324509 
	C129.998016,141.441498 130.988342,142.226135 131.984406,143.422363 
	C132.225586,152.014160 136.342300,157.694977 143.898193,160.236313 
	C148.000351,161.616028 152.611771,161.481644 156.993469,162.030243 
z"/>
<path fill="#2F3B5E" opacity="1.000000" stroke="none" 
	d="
M38.972290,198.997345 
	C38.972290,206.127991 38.972290,213.258652 38.972290,220.812332 
	C87.625969,220.812332 135.818329,220.812332 184.880676,220.805969 
	C186.458572,219.472412 187.736679,218.163193 187.779266,216.814957 
	C188.008575,209.554886 187.931015,202.285110 188.189209,194.909988 
	C188.614548,194.530319 188.809998,194.259354 189.147186,193.757324 
	C189.786667,193.349915 190.284393,193.173584 190.782104,192.997238 
	C190.891464,202.360489 191.000824,211.723724 190.796158,221.666153 
	C190.312622,222.540054 190.143097,222.834778 189.508698,223.083618 
	C179.905975,223.023407 170.768127,222.989929 161.630310,222.998062 
	C120.095490,223.035019 78.560677,223.083710 36.935768,222.885406 
	C36.583561,222.432037 36.321442,222.221405 36.059322,222.010788 
	C36.006119,214.452209 35.952915,206.893631 36.452820,199.073746 
	C37.661385,198.874069 38.316837,198.935699 38.972290,198.997345 
z"/>
<path fill="#0B204E" opacity="1.000000" stroke="none" 
	d="
M37.025856,223.128174 
	C78.560677,223.083710 120.095490,223.035019 161.630310,222.998062 
	C170.768127,222.989929 179.905975,223.023407 189.505859,223.240723 
	C189.967896,223.443710 189.983337,223.760971 189.983337,223.760986 
	C188.835007,223.866608 187.686691,224.064453 186.538345,224.064606 
	C136.996155,224.071167 87.453957,224.060196 37.472050,223.748077 
	C37.032337,223.444794 37.025856,223.128174 37.025856,223.128174 
z"/>
<path fill="#29395C" opacity="1.000000" stroke="none" 
	d="
M190.816040,192.610504 
	C190.284393,193.173584 189.786667,193.349915 188.873596,193.764725 
	C188.275955,194.009949 188.093674,194.016724 187.706436,193.717072 
	C184.614517,187.288818 181.727539,181.166962 178.840546,175.045105 
	C180.740570,173.263885 182.554245,174.031342 184.587341,175.106110 
	C184.981720,175.987564 184.978333,177.056259 185.329773,177.991623 
	C187.119370,182.754623 189.000732,187.483154 190.816040,192.610504 
z"/>
<path fill="#27365A" opacity="1.000000" stroke="none" 
	d="
M39.028481,198.572678 
	C38.316837,198.935699 37.661385,198.874069 36.539505,198.635376 
	C36.350727,197.419830 36.628376,196.381348 37.357780,195.405869 
	C38.234577,196.361908 38.659626,197.254974 39.028481,198.572678 
z"/>
<path fill="#1A2A54" opacity="1.000000" stroke="none" 
	d="
M36.935768,222.885406 
	C37.025856,223.128174 37.032337,223.444794 37.024666,223.602951 
	C36.662704,223.371292 36.308411,222.981476 36.006721,222.301224 
	C36.321442,222.221405 36.583561,222.432037 36.935768,222.885406 
z"/>
<path fill="#1A2A54" opacity="1.000000" stroke="none" 
	d="
M190.273163,223.707291 
	C189.983337,223.760971 189.967896,223.443710 189.970734,223.286606 
	C190.143097,222.834778 190.312622,222.540054 190.711426,222.128937 
	C190.814819,222.559570 190.688919,223.106598 190.273163,223.707291 
z"/>
<path fill="#52B4AF" opacity="1.000000" stroke="none" 
	d="
M178.551025,174.889557 
	C181.727539,181.166962 184.614517,187.288818 187.681061,193.967651 
	C187.893539,194.689331 187.926453,194.854019 187.959351,195.018692 
	C187.931015,202.285110 188.008575,209.554886 187.779266,216.814957 
	C187.736679,218.163193 186.458572,219.472412 185.338867,220.733566 
	C184.643372,212.252258 185.139725,203.721222 183.911301,195.446228 
	C181.463043,178.954041 168.570404,167.976120 151.462952,167.007111 
	C152.772156,166.393112 154.501282,165.773819 156.617020,165.112366 
	C165.001465,166.285583 172.353119,168.922379 178.551025,174.889557 
z"/>
<path fill="#4D4E4E" opacity="1.000000" stroke="none" 
	d="
M82.978569,160.948959 
	C70.195076,162.136749 56.930824,161.636917 46.644875,171.520508 
	C46.064838,172.077850 44.749207,171.869644 43.390659,172.025009 
	C37.861778,167.604507 37.876049,163.528885 43.646637,160.286972 
	C54.181801,154.368301 57.807888,144.892822 57.957153,133.643311 
	C58.153824,118.821121 57.463665,103.965660 58.243080,89.181870 
	C58.626125,81.916389 60.990067,74.615356 63.426212,67.670174 
	C64.341690,65.060257 67.695168,62.261311 70.460403,61.531734 
	C80.499672,58.882988 90.699532,56.698650 100.951454,55.031971 
	C119.016113,52.095158 136.493286,55.767349 153.914612,60.326252 
	C160.598373,62.075294 164.296204,66.168304 165.841187,72.274918 
	C167.333679,78.174149 168.668121,84.267822 168.851074,90.313034 
	C169.284195,104.625046 168.880417,118.960159 169.029907,133.283691 
	C169.149353,144.729660 172.665894,154.490982 183.482330,160.342300 
	C184.740219,161.022766 185.757690,162.284302 186.664398,163.449371 
	C188.679214,166.038315 188.133667,168.951279 185.729446,170.420395 
	C184.100845,171.415558 180.746552,171.537338 179.267899,170.490524 
	C172.752884,165.878296 165.924881,162.461487 157.414062,162.018326 
	C152.611771,161.481644 148.000351,161.616028 143.898193,160.236313 
	C136.342300,157.694977 132.225586,152.014160 131.996826,143.177490 
	C132.003525,142.521057 132.010529,142.031097 132.317261,141.888062 
	C134.752182,140.168442 136.880371,138.591873 139.300613,136.872818 
	C141.063126,135.154373 142.533615,133.578400 144.304871,131.845703 
	C152.139130,122.751274 155.055130,111.932671 156.903519,100.770500 
	C157.833969,95.151634 156.183075,93.229691 150.638458,92.100372 
	C147.568192,91.475014 144.377838,91.211739 141.439194,90.207222 
	C128.920441,85.927956 116.475441,81.432907 103.681839,76.865875 
	C98.971199,74.280815 94.700996,72.225342 89.237892,73.314674 
	C74.449066,76.263542 68.112946,91.624405 70.408203,103.855820 
	C73.331711,119.435181 80.629997,132.122986 94.009094,141.415527 
	C94.009560,143.223923 94.016533,144.614960 93.976425,146.373077 
	C92.604988,151.681625 90.468910,156.098846 85.718407,159.123657 
	C84.614632,159.806381 83.796600,160.377670 82.978569,160.948959 
z"/>
<path fill="#5CCDC3" opacity="1.000000" stroke="none" 
	d="
M147.866653,15.075169 
	C156.536331,20.346691 164.861099,25.472769 173.393951,30.726980 
	C169.070068,39.842659 165.265167,48.129181 161.119537,56.241585 
	C160.644653,57.170879 158.070114,57.799511 156.799133,57.430588 
	C143.645157,53.612442 130.353592,51.031536 116.581627,50.685638 
	C101.121429,50.297344 86.063576,52.261848 71.446815,57.176689 
	C67.832039,58.392143 66.171379,57.848274 64.649048,54.312943 
	C61.364246,46.684612 57.639084,39.245907 54.116600,31.777323 
	C78.583633,8.027560 111.654823,-2.835166 147.866653,15.075169 
M108.010483,16.831757 
	C107.913452,18.436600 107.816422,20.041443 107.729973,21.471285 
	C104.747559,22.749842 100.539894,20.190393 100.055527,25.979361 
	C99.530266,32.257061 102.362892,33.832829 107.483521,33.246853 
	C108.731773,36.289604 106.217903,40.466492 112.014351,40.933971 
	C118.308144,41.441555 119.894157,38.620022 119.187309,33.642723 
	C122.146461,32.126511 126.562927,34.984215 126.818588,29.438519 
	C127.098061,23.376522 127.098633,23.156914 119.312927,21.240582 
	C118.619965,13.774671 114.204735,11.695209 108.010483,16.831757 
z"/>
<path fill="#FCD1A4" opacity="1.000000" stroke="none" 
	d="
M129.000336,139.992157 
	C118.437256,144.342209 108.041458,144.343658 97.286255,138.444183 
	C82.362930,129.378311 75.373985,116.088402 73.599648,99.882538 
	C72.306404,88.070755 79.669098,78.334091 91.416451,76.849312 
	C95.091370,76.384827 99.134727,78.835258 103.300552,80.155853 
	C118.253494,87.106171 133.335312,92.595558 149.299454,95.337891 
	C152.772110,95.934433 153.788773,97.310249 153.291595,101.024712 
	C151.872223,111.629021 148.179916,121.207207 141.657272,129.992706 
	C140.588455,131.102783 139.797882,132.066055 138.701736,133.167007 
	C135.410217,135.491669 132.424271,137.678619 129.309021,139.828705 
	C129.179733,139.791855 129.000336,139.992157 129.000336,139.992157 
z"/>
<path fill="#FCD1A4" opacity="1.000000" stroke="none" 
	d="
M128.802475,148.036301 
	C131.019104,157.980194 138.025177,162.912247 147.685303,165.341415 
	C142.883621,174.209290 136.078873,180.538696 127.936821,185.198257 
	C111.231171,194.758682 115.853798,194.793320 99.187981,185.280075 
	C91.029114,180.622818 84.215500,174.283340 79.368629,165.554382 
	C81.719032,164.614304 83.799072,163.782349 86.143326,162.704269 
	C86.407547,162.458145 86.424637,162.427399 86.748741,162.340927 
	C94.215134,158.312286 97.046730,151.868027 97.719452,144.167053 
	C97.831741,144.228607 98.055244,144.353622 98.069344,144.691940 
	C104.479874,149.414963 111.518188,150.713928 119.111366,149.464874 
	C122.332893,148.934952 125.571587,148.509323 128.802475,148.036301 
z"/>
<path fill="#2F3B5E" opacity="1.000000" stroke="none" 
	d="
M103.009430,79.951408 
	C99.134727,78.835258 95.091370,76.384827 91.416451,76.849312 
	C79.669098,78.334091 72.306404,88.070755 73.599648,99.882538 
	C75.373985,116.088402 82.362930,129.378311 96.931137,138.330322 
	C96.853821,139.172256 96.558716,139.777969 95.796112,140.691605 
	C94.890938,140.999069 94.453270,140.998611 94.015594,140.998169 
	C80.629997,132.122986 73.331711,119.435181 70.408203,103.855820 
	C68.112946,91.624405 74.449066,76.263542 89.237892,73.314674 
	C94.700996,72.225342 98.971199,74.280815 103.656830,77.178207 
	C103.638802,78.411331 103.324112,79.181374 103.009430,79.951408 
z"/>
<path fill="#DDB893" opacity="1.000000" stroke="none" 
	d="
M128.846832,147.660538 
	C125.571587,148.509323 122.332893,148.934952 119.111366,149.464874 
	C111.518188,150.713928 104.479874,149.414963 97.995987,144.359924 
	C97.942024,143.466965 97.975502,143.244339 98.008987,143.021713 
	C107.765327,147.134338 117.662003,148.054916 128.121750,144.012070 
	C128.411819,145.245819 128.651489,146.265289 128.846832,147.660538 
z"/>
<path fill="#303B5B" opacity="1.000000" stroke="none" 
	d="
M97.854553,142.774597 
	C97.975502,143.244339 97.942024,143.466965 97.981888,144.021606 
	C98.055244,144.353622 97.831741,144.228607 97.375298,144.243423 
	C95.953735,144.840820 94.988625,145.423401 94.023506,146.005981 
	C94.016533,144.614960 94.009560,143.223923 94.009094,141.415527 
	C94.453270,140.998611 94.890938,140.999069 95.656708,140.999146 
	C96.556580,141.508347 97.128357,142.017914 97.854553,142.774597 
z"/>
<path fill="#2F3B5E" opacity="1.000000" stroke="none" 
	d="
M129.004028,140.324509 
	C129.000336,139.992157 129.179733,139.791855 129.689270,139.880737 
	C130.802719,140.656769 131.406631,141.343933 132.010529,142.031097 
	C132.010529,142.031097 132.003525,142.521057 131.991089,142.765915 
	C130.988342,142.226135 129.998016,141.441498 129.004028,140.324509 
z"/>
<path fill="#2F3B5E" opacity="1.000000" stroke="none" 
	d="
M83.230133,161.243362 
	C83.796600,160.377670 84.614632,159.806381 85.721176,159.553955 
	C86.147995,160.724350 86.286316,161.575867 86.424637,162.427399 
	C86.424637,162.427399 86.407547,162.458145 86.423187,162.471558 
	C85.453110,162.169235 84.467400,161.853500 83.230133,161.243362 
z"/>
<path fill="#2F3B5E" opacity="1.000000" stroke="none" 
	d="
M43.044876,174.974518 
	C43.191830,175.115601 43.293221,175.297287 43.394615,175.478989 
	C43.287914,175.445419 43.181217,175.411835 42.997726,175.243469 
	C42.920937,175.108688 42.999317,175.015121 43.044876,174.974518 
z"/>
<path fill="#26284E" opacity="1.000000" stroke="none" 
	d="
M188.189209,194.909988 
	C187.926453,194.854019 187.893539,194.689331 187.885986,194.274048 
	C188.093674,194.016724 188.275955,194.009949 188.731842,193.995789 
	C188.809998,194.259354 188.614548,194.530319 188.189209,194.909988 
z"/>
<path fill="#27365A" opacity="1.000000" stroke="none" 
	d="
M103.300552,80.155853 
	C103.324112,79.181374 103.638802,78.411331 103.978500,77.328964 
	C116.475441,81.432907 128.920441,85.927956 141.439194,90.207222 
	C144.377838,91.211739 147.568192,91.475014 150.638458,92.100372 
	C156.183075,93.229691 157.833969,95.151634 156.903519,100.770500 
	C155.055130,111.932671 152.139130,122.751274 143.970123,131.795837 
	C142.868240,131.217102 142.401871,130.531479 141.935516,129.845871 
	C148.179916,121.207207 151.872223,111.629021 153.291595,101.024712 
	C153.788773,97.310249 152.772110,95.934433 149.299454,95.337891 
	C133.335312,92.595558 118.253494,87.106171 103.300552,80.155853 
z"/>
<path fill="#27365A" opacity="1.000000" stroke="none" 
	d="
M86.748734,162.340927 
	C86.286316,161.575867 86.147995,160.724350 86.006912,159.442520 
	C90.468910,156.098846 92.604988,151.681625 93.976425,146.373077 
	C94.988625,145.423401 95.953735,144.840820 97.263008,144.181885 
	C97.046730,151.868027 94.215134,158.312286 86.748734,162.340927 
z"/>
<path fill="#27365A" opacity="1.000000" stroke="none" 
	d="
M132.317261,141.888062 
	C131.406631,141.343933 130.802719,140.656769 129.818573,139.917587 
	C132.424271,137.678619 135.410217,135.491669 138.698151,133.565353 
	C139.002960,134.889099 139.005768,135.952194 139.008575,137.015289 
	C136.880371,138.591873 134.752182,140.168442 132.317261,141.888062 
z"/>
<path fill="#2F3B5E" opacity="1.000000" stroke="none" 
	d="
M139.300613,136.872818 
	C139.005768,135.952194 139.002960,134.889099 139.003723,133.427658 
	C139.797882,132.066055 140.588455,131.102783 141.657272,129.992706 
	C142.401871,130.531479 142.868240,131.217102 143.669357,131.952576 
	C142.533615,133.578400 141.063126,135.154373 139.300613,136.872818 
z"/>
<path fill="#2D4162" opacity="1.000000" stroke="none" 
	d="
M108.073143,16.404099 
	C114.204735,11.695209 118.619965,13.774671 119.312927,21.240582 
	C127.098633,23.156914 127.098061,23.376522 126.818588,29.438519 
	C126.562927,34.984215 122.146461,32.126511 119.187309,33.642723 
	C119.894157,38.620022 118.308144,41.441555 112.014351,40.933971 
	C106.217903,40.466492 108.731773,36.289604 107.483521,33.246853 
	C102.362892,33.832829 99.530266,32.257061 100.055527,25.979361 
	C100.539894,20.190393 104.747559,22.749842 107.729973,21.471285 
	C107.816422,20.041443 107.913452,18.436600 108.073143,16.404099 
M120.248543,29.773235 
	C121.189667,28.951887 122.130791,28.130541 123.071907,27.309191 
	C122.169846,26.616274 121.239021,25.300711 120.370811,25.340799 
	C117.036636,25.494761 115.408844,24.513973 115.648216,20.853838 
	C115.708725,19.928499 114.205078,18.900869 113.420204,17.920246 
	C112.688095,18.954197 111.302345,20.015091 111.343643,21.017162 
	C111.479919,24.323093 110.214249,25.458994 106.969620,25.346178 
	C105.977837,25.311691 104.935852,26.720747 103.916862,27.468723 
	C104.914948,28.237373 105.930321,29.676479 106.907944,29.651281 
	C110.074486,29.569672 111.594208,30.534227 111.252853,33.917915 
	C110.928238,37.135647 112.672890,37.553749 115.149208,36.628414 
	C116.928093,34.457184 113.611366,29.340660 120.248543,29.773235 
z"/>
<path fill="#D45262" opacity="1.000000" stroke="none" 
	d="
M119.808105,29.776669 
	C113.611366,29.340660 116.928093,34.457184 115.149208,36.628414 
	C112.672890,37.553749 110.928238,37.135647 111.252853,33.917915 
	C111.594208,30.534227 110.074486,29.569672 106.907944,29.651281 
	C105.930321,29.676479 104.914948,28.237373 103.916862,27.468723 
	C104.935852,26.720747 105.977837,25.311691 106.969620,25.346178 
	C110.214249,25.458994 111.479919,24.323093 111.343643,21.017162 
	C111.302345,20.015091 112.688095,18.954197 113.420204,17.920246 
	C114.205078,18.900869 115.708725,19.928499 115.648216,20.853838 
	C115.408844,24.513973 117.036636,25.494761 120.370811,25.340799 
	C121.239021,25.300711 122.169846,26.616274 123.071907,27.309193 
	C122.130791,28.130541 121.189667,28.951887 119.808105,29.776669 
z"/>
</svg>